<svg width="42" height="42" viewBox="0 0 42 42" fill="none" xmlns="http://www.w3.org/2000/svg">
<path d="M24.5 16.275V21.35H29.05C29.4 21.35 29.575 21.7 29.575 22.05L28.875 25.375C28.875 25.55 28.525 25.725 28.35 25.725H24.5V38.5H19.25V25.9H16.275C15.925 25.9 15.75 25.725 15.75 25.375V22.05C15.75 21.7 15.925 21.525 16.275 21.525H19.25V15.75C19.25 12.775 21.525 10.5 24.5 10.5H29.225C29.575 10.5 29.75 10.675 29.75 11.025V15.225C29.75 15.575 29.575 15.75 29.225 15.75H25.025C24.675 15.75 24.5 15.925 24.5 16.275V16.275Z" stroke="#092E58" stroke-width="1.5" stroke-miterlimit="10" stroke-linecap="round"/>
<path d="M26.25 38.5H15.75C7 38.5 3.5 35 3.5 26.25V15.75C3.5 7 7 3.5 15.75 3.5H26.25C35 3.5 38.5 7 38.5 15.75V26.25C38.5 35 35 38.5 26.25 38.5Z" stroke="#092E58" stroke-width="1.5" stroke-linecap="round" stroke-linejoin="round"/>
</svg>
