<svg width="42" height="42" viewBox="0 0 42 42" fill="none" xmlns="http://www.w3.org/2000/svg">
<path d="M15.75 38.5H26.25C35 38.5 38.5 35 38.5 26.25V15.75C38.5 7 35 3.5 26.25 3.5H15.75C7 3.5 3.5 7 3.5 15.75V26.25C3.5 35 7 38.5 15.75 38.5Z" stroke="#092E58" stroke-width="1.5" stroke-linecap="round" stroke-linejoin="round"/>
<path d="M21 27.125C21.8043 27.125 22.6008 26.9666 23.3439 26.6588C24.0871 26.351 24.7623 25.8998 25.331 25.331C25.8998 24.7623 26.351 24.0871 26.6588 23.3439C26.9666 22.6008 27.125 21.8043 27.125 21C27.125 20.1957 26.9666 19.3992 26.6588 18.6561C26.351 17.9129 25.8998 17.2377 25.331 16.669C24.7623 16.1002 24.0871 15.649 23.3439 15.3412C22.6008 15.0334 21.8043 14.875 21 14.875C19.3755 14.875 17.8176 15.5203 16.669 16.669C15.5203 17.8176 14.875 19.3755 14.875 21C14.875 22.6245 15.5203 24.1824 16.669 25.331C17.8176 26.4797 19.3755 27.125 21 27.125V27.125Z" stroke="#092E58" stroke-width="1.5" stroke-linecap="round" stroke-linejoin="round"/>
<path d="M30.863 12.25H30.8835" stroke="#092E58" stroke-width="2" stroke-linecap="round" stroke-linejoin="round"/>
</svg>
