<svg width="42" height="42" viewBox="0 0 42 42" fill="none" xmlns="http://www.w3.org/2000/svg">
<path d="M30.3625 15.8375L26.2675 29.0325C25.2875 32.165 20.895 32.2175 19.8625 29.1025L18.6375 25.48C18.305 24.4825 17.5175 23.6775 16.52 23.3625L12.88 22.1375C9.78251 21.105 9.83501 16.6775 12.9675 15.7325L26.1625 11.62C28.7525 10.8325 31.185 13.265 30.3625 15.8375V15.8375Z" stroke="#092E58" stroke-width="1.5" stroke-linecap="round" stroke-linejoin="round"/>
<path d="M15.75 38.5H26.25C35 38.5 38.5 35 38.5 26.25V15.75C38.5 7 35 3.5 26.25 3.5H15.75C7 3.5 3.5 7 3.5 15.75V26.25C3.5 35 7 38.5 15.75 38.5Z" stroke="#092E58" stroke-width="1.5" stroke-linecap="round" stroke-linejoin="round"/>
</svg>
